PathFileType	4	(x/y/z)	S08_M20_T13
DataRate	CameraRate	NumFrames	NumMarkers	Units	OrigDataRate	OrigDataStartFrame	OrigNumFrames
240	240	8	51	mm	240	1	524
Frame#	Time	Sternum			R.Acromium			L.Acromium			Top.Head			R.ASIS			L.ASIS			R.PSIS			L.PSIS			R.Great.Tro			L.Great.Tro			R.Iliac.Crest			L.Iliac.Crest			V.Sacral			R.Thigh.Upper.Post			R.Thigh.Lower.Ant			R.Thigh.Lower.Post			R.Thigh.Upper.Ant			R.Knee.Lat			R.Knee.Med			R.Shank.Upper.Post			R.Shank.Lower.Ant			R.Shank.Lower.Post			R.Shank.Upper.Ant			R.Ankle.Lat			R.Ankle.Med			R.Heel.Upper			R.Heel.Med			R.Heel.Lat			R.Toe.Lat			R.Toe.Med			R.Toe.Tip			L.Thigh.Upper.Post			L.Thigh.Lower.Ant			L.Thigh.Lower.Post			L.Thigh.Upper.Ant			L.Knee.Lat			L.Knee.Med			L.Shank.Upper.Post			L.Shank.Lower.Ant			L.Shank.Lower.Post			L.Shank.Upper.Ant			L.Ankle.Lat			L.Ankle.Med			L.Heel.Upper			L.Heel.Med			L.Heel.Lat			L.Toe.Lat			L.Toe.Med			L.Toe.Tip			Cervical.Spine			Back			
		X1	Y1	Z1	X2	Y2	Z2	X3	Y3	Z3	X4	Y4	Z4	X5	Y5	Z5	X6	Y6	Z6	X7	Y7	Z7	X8	Y8	Z8	X9	Y9	Z9	X10	Y10	Z10	X11	Y11	Z11	X12	Y12	Z12	X13	Y13	Z13	X14	Y14	Z14	X15	Y15	Z15	X16	Y16	Z16	X17	Y17	Z17	X18	Y18	Z18	X19	Y19	Z19	X20	Y20	Z20	X21	Y21	Z21	X22	Y22	Z22	X23	Y23	Z23	X24	Y24	Z24	X25	Y25	Z25	X26	Y26	Z26	X27	Y27	Z27	X28	Y28	Z28	X29	Y29	Z29	X30	Y30	Z30	X31	Y31	Z31	X32	Y32	Z32	X33	Y33	Z33	X34	Y34	Z34	X35	Y35	Z35	X36	Y36	Z36	X37	Y37	Z37	X38	Y38	Z38	X39	Y39	Z39	X40	Y40	Z40	X41	Y41	Z41	X42	Y42	Z42	X43	Y43	Z43	X44	Y44	Z44	X45	Y45	Z45	X46	Y46	Z46	X47	Y47	Z47	X48	Y48	Z48	X49	Y49	Z49	X50	Y50	Z50	X51	Y51	Z51	

1	0	NaN	NaN	NaN	-1673.3	1426.1	513.1	-1711.2	1461.2	181.74	-1652.8	1747.8	359.82	NaN	NaN	NaN	NaN	NaN	NaN	NaN	NaN	NaN	NaN	NaN	NaN	-1695.5	882.83	520.6	-1653.5	871.82	149.62	-1701.3	1056.6	491.12	-1665.2	1057	180.27	-1800.6	966.33	310.84	-1776.4	699.82	499.93	NaN	NaN	NaN	NaN	NaN	NaN	NaN	NaN	NaN	-1815.1	505.88	455.1	-1825.5	517.66	326.93	-1958.6	367	452.6	-1946.3	272.3	445.71	NaN	NaN	NaN	-1882.6	351.74	437.86	-2053.4	143.17	394.07	-2022.3	150.96	317.05	-2112.8	118.53	346.51	-2107.7	90.555	318.94	-2114.1	93.388	379.6	-1947.2	39.589	422.74	-1927.2	50.989	304.33	-1861.7	51.847	350.33	-1580.8	663.09	166.47	-1460.4	621.63	188.06	-1526.7	591.22	185.07	-1511.4	691.81	163.51	-1463.9	514.75	203.18	-1454.3	518.67	327.63	-1433.8	327.77	202.61	-1321.4	288.04	214.11	-1404.4	261.31	219.2	-1370	347	206.18	-1296.6	116.48	232.1	-1279.4	136.63	316.34	-1325.5	61.404	284.1	-1296.5	41.937	314.65	-1310.5	43.843	249.25	-1152.3	129.02	214.89	-1139.8	149.35	326.35	-1098.6	198.55	274.99	-1759.3	1490	349.99	-1812	1205.4	352.62
2	0.0041667	NaN	NaN	NaN	-1668.1	1425.6	512.49	-1705.7	1460.6	181.14	-1648	1747.3	359.44	NaN	NaN	NaN	NaN	NaN	NaN	NaN	NaN	NaN	NaN	NaN	NaN	-1690.4	882.24	520.16	-1646.6	871.44	149.52	-1695.8	1055.9	490.84	-1659.2	1056.5	179.97	-1794.8	965.91	310.25	-1772.5	699.91	499.05	NaN	NaN	NaN	NaN	NaN	NaN	NaN	NaN	NaN	-1809.9	505.3	454.82	-1820.3	517.18	326.7	-1954.2	367.61	452.65	-1942.6	272.9	444.97	NaN	NaN	NaN	-1879	351.99	437.76	-2051.8	144.88	394.2	-2020.4	152.26	317.19	-2111.3	121.01	346.54	-2106.6	93.042	318.91	-2112.9	95.792	379.6	-1947	39.694	422.75	-1926.9	51.069	304.34	-1861.5	51.712	350.29	-1574.6	662.89	166.45	-1454.3	621.4	188.47	-1520.7	590.99	185.25	-1505.3	691.59	163.8	-1458.2	514.28	203.45	-1449	518.02	327.73	-1429.8	327	202.54	-1319	285.83	215.26	-1400.9	260.33	219.02	-1365.8	345.7	206.45	-1294.9	114.76	231.98	-1277.4	134.43	316.56	-1324.1	60.723	284.13	-1295.4	40.837	314.7	-1308.7	42.696	249.59	-1150.6	126	214.9	-1137.6	145.88	326.49	-1095.9	194.77	275.28	-1754.2	1489.4	349.33	-1806.4	1204.7	352.13
3	0.0083333	NaN	NaN	NaN	-1662.7	1425.1	511.85	-1700	1460	180.51	-1643	1746.9	359.03	NaN	NaN	NaN	NaN	NaN	NaN	NaN	NaN	NaN	NaN	NaN	NaN	-1685.1	881.62	519.7	-1639.4	871.07	149.41	-1690	1055.3	490.55	-1652.9	1056.1	179.66	-1788.7	965.49	309.64	-1768.3	699.96	498.16	NaN	NaN	NaN	NaN	NaN	NaN	NaN	NaN	NaN	-1804.6	504.7	454.54	-1814.8	516.68	326.46	-1949.6	368.27	452.68	-1938.7	273.56	444.23	NaN	NaN	NaN	-1875.2	352.26	437.67	-2050	146.68	394.35	-2018.5	153.63	317.35	-2109.7	123.64	346.59	-2105.3	95.68	318.89	-2111.7	98.341	379.61	-1946.9	39.809	422.77	-1926.6	51.155	304.35	-1861.3	51.577	350.26	-1568.2	662.7	166.42	-1448	621.16	188.91	-1514.4	590.77	185.42	-1498.9	691.36	164.11	-1452.3	513.8	203.71	-1443.5	517.34	327.82	-1425.6	326.23	202.46	-1316.4	283.6	216.4	-1397.2	259.34	218.84	-1361.5	344.38	206.73	-1293	113.02	231.86	-1275.2	132.2	316.79	-1322.7	60.099	284.17	-1294.2	39.755	314.76	-1306.8	41.595	249.94	-1148.9	122.86	214.93	-1135.2	142.28	326.62	-1093	190.83	275.57	-1748.8	1488.8	348.64	-1800.7	1204.1	351.62
4	0.0125	NaN	NaN	NaN	-1657.1	1424.6	511.17	-1694.1	1459.4	179.85	-1637.9	1746.4	358.61	NaN	NaN	NaN	NaN	NaN	NaN	NaN	NaN	NaN	NaN	NaN	NaN	-1679.6	880.99	519.22	-1632	870.72	149.27	-1684	1054.6	490.25	-1646.4	1055.6	179.35	-1782.4	965.07	309.01	-1763.8	699.97	497.27	NaN	NaN	NaN	NaN	NaN	NaN	NaN	NaN	NaN	-1799	504.11	454.28	-1809.1	516.15	326.22	-1944.9	368.96	452.71	-1934.5	274.27	443.49	NaN	NaN	NaN	-1871.2	352.54	437.59	-2048.2	148.56	394.52	-2016.3	155.06	317.53	-2108	126.42	346.66	-2104	98.462	318.87	-2110.4	101.03	379.63	-1946.7	39.935	422.78	-1926.3	51.247	304.36	-1861.1	51.443	350.22	-1561.6	662.55	166.39	-1441.6	620.92	189.36	-1508	590.57	185.58	-1492.4	691.16	164.44	-1446.3	513.32	203.96	-1437.9	516.66	327.9	-1421.2	325.45	202.38	-1313.7	281.39	217.52	-1393.4	258.35	218.67	-1356.9	343.05	207.01	-1291	111.28	231.76	-1272.9	129.98	317.03	-1321.2	59.551	284.23	-1293	38.712	314.84	-1304.9	40.567	250.3	-1147	119.62	214.98	-1132.8	138.56	326.76	-1090.1	186.74	275.86	-1743.2	1488.2	347.91	-1794.7	1203.4	351.09
5	0.016667	NaN	NaN	NaN	-1651.3	1424.2	510.48	-1688	1458.9	179.15	-1632.6	1746	358.17	NaN	NaN	NaN	NaN	NaN	NaN	NaN	NaN	NaN	NaN	NaN	NaN	-1673.9	880.33	518.72	-1624.5	870.39	149.1	-1677.9	1053.9	489.94	-1639.7	1055.2	179.03	-1775.9	964.66	308.36	-1759	699.92	496.39	NaN	NaN	NaN	NaN	NaN	NaN	NaN	NaN	NaN	-1793.3	503.53	454.04	-1803.1	515.6	325.99	-1940	369.69	452.73	-1930.2	275.02	442.76	NaN	NaN	NaN	-1867	352.85	437.51	-2046.2	150.51	394.71	-2014.1	156.55	317.73	-2106.2	129.33	346.74	-2102.6	101.38	318.86	-2108.9	103.86	379.66	-1946.5	40.074	422.79	-1926	51.347	304.38	-1860.8	51.313	350.18	-1554.8	662.43	166.35	-1435	620.69	189.82	-1501.4	590.39	185.73	-1485.6	690.97	164.78	-1440.1	512.84	204.2	-1432.1	515.98	327.98	-1416.7	324.69	202.3	-1310.8	279.22	218.59	-1389.4	257.37	218.51	-1352.3	341.74	207.3	-1288.9	109.56	231.66	-1270.5	127.78	317.27	-1319.6	59.096	284.31	-1291.7	37.728	314.94	-1303.1	39.636	250.65	-1145.1	116.31	215.04	-1130.3	134.74	326.89	-1087	182.54	276.15	-1737.5	1487.6	347.15	-1788.6	1202.7	350.53
6	0.020833	NaN	NaN	NaN	-1645.5	1423.7	509.76	-1681.8	1458.3	178.44	-1627.2	1745.6	357.71	NaN	NaN	NaN	NaN	NaN	NaN	NaN	NaN	NaN	NaN	NaN	NaN	-1668	879.66	518.21	-1616.8	870.1	148.9	-1671.5	1053.2	489.62	-1632.9	1054.8	178.71	-1769.2	964.28	307.7	-1754	699.81	495.53	NaN	NaN	NaN	NaN	NaN	NaN	NaN	NaN	NaN	-1787.5	502.96	453.81	-1797	515.02	325.77	-1935	370.45	452.75	-1925.7	275.83	442.07	NaN	NaN	NaN	-1862.6	353.16	437.45	-2044.1	152.54	394.93	-2011.7	158.08	317.97	-2104.2	132.37	346.85	-2101	104.44	318.87	-2107.4	106.82	379.7	-1946.3	40.229	422.81	-1925.6	51.458	304.41	-1860.6	51.188	350.14	-1547.9	662.35	166.29	-1428.2	620.47	190.28	-1494.7	590.24	185.86	-1478.7	690.82	165.13	-1433.9	512.36	204.41	-1426.2	515.31	328.03	-1412.1	323.95	202.22	-1307.7	277.12	219.61	-1385.4	256.42	218.36	-1347.6	340.45	207.59	-1286.8	107.89	231.57	-1268.1	125.65	317.51	-1317.9	58.747	284.4	-1290.4	36.821	315.06	-1301.3	38.821	250.99	-1143.1	112.94	215.12	-1127.7	130.87	327.01	-1083.9	178.24	276.42	-1731.7	1487	346.37	-1782.3	1202	349.97
7	0.025	NaN	NaN	NaN	-1639.5	1423.3	509.03	-1675.5	1457.8	177.69	-1621.7	1745.2	357.24	NaN	NaN	NaN	NaN	NaN	NaN	NaN	NaN	NaN	NaN	NaN	NaN	-1661.9	878.99	517.69	-1609	869.86	148.66	-1665.1	1052.6	489.3	-1625.9	1054.4	178.38	-1762.4	963.92	307.03	-1748.7	699.65	494.7	-1708.9	585.02	464.26	NaN	NaN	NaN	NaN	NaN	NaN	-1781.5	502.41	453.61	-1790.7	514.42	325.55	-1929.8	371.24	452.76	-1921.1	276.68	441.4	NaN	NaN	NaN	-1858	353.49	437.4	-2041.8	154.62	395.19	-2009.2	159.67	318.23	-2102.1	135.54	346.98	-2099.4	107.64	318.89	-2105.7	109.92	379.77	-1946	40.402	422.82	-1925.2	51.582	304.44	-1860.4	51.07	350.1	-1540.9	662.32	166.22	-1421.4	620.26	190.75	-1487.9	590.13	185.97	-1471.7	690.7	165.49	-1427.5	511.9	204.6	-1420.3	514.67	328.07	-1407.4	323.26	202.13	-1304.4	275.12	220.57	-1381.3	255.51	218.22	-1342.8	339.2	207.87	-1284.5	106.28	231.5	-1265.5	123.6	317.76	-1316.2	58.515	284.5	-1289.1	36.006	315.19	-1299.5	38.137	251.33	-1141.1	109.53	215.23	-1125.1	126.95	327.13	-1080.6	173.86	276.68	-1725.8	1486.5	345.55	-1775.8	1201.3	349.39
8	0.029167	NaN	NaN	NaN	-1633.5	1422.9	508.28	-1669.1	1457.2	176.93	-1616.1	1744.9	356.76	NaN	NaN	NaN	NaN	NaN	NaN	NaN	NaN	NaN	NaN	NaN	NaN	-1655.7	878.31	517.15	-1601.1	869.67	148.4	-1658.5	1051.9	488.98	-1618.8	1054.1	178.07	-1755.5	963.6	306.35	-1743.1	699.42	493.9	-1703.1	584.44	463.91	NaN	NaN	NaN	NaN	NaN	NaN	-1775.5	501.87	453.44	-1784.3	513.8	325.35	-1924.5	372.06	452.76	-1916.3	277.58	440.77	NaN	NaN	NaN	-1853.3	353.83	437.36	-2039.4	156.77	395.48	-2006.6	161.31	318.53	-2099.9	138.84	347.15	-2097.6	110.97	318.94	-2103.9	113.15	379.86	-1945.8	40.598	422.83	-1924.7	51.723	304.47	-1860.1	50.96	350.06	-1533.9	662.34	166.13	-1414.6	620.07	191.21	-1481	590.05	186.05	-1464.7	690.62	165.85	-1421.2	511.47	204.76	-1414.3	514.06	328.09	-1402.6	322.61	202.05	-1301	273.22	221.44	-1377.1	254.65	218.08	-1337.9	338.01	208.14	-1282.2	104.75	231.43	-1262.9	121.65	318	-1314.5	58.402	284.61	-1287.8	35.293	315.33	-1297.8	37.592	251.64	-1139	106.09	215.37	-1122.5	123.01	327.25	-1077.3	169.42	276.94	-1719.7	1485.9	344.72	-1769.3	1200.7	348.8
